<svg width="24" height="24" viewBox="0 0 24 24" fill="none" xmlns="http://www.w3.org/2000/svg">
<g clip-path="url(#clip0_40_226)">
<path d="M12.0039 0C6.99403 0 5.52882 0.00517032 5.24402 0.0287999C4.21591 0.114284 3.57616 0.276208 2.87917 0.623305C2.34205 0.890106 1.91843 1.19936 1.50035 1.63287C0.73896 2.42346 0.277507 3.3961 0.110458 4.55226C0.0292467 5.11354 0.00561688 5.228 0.000818394 8.09496C-0.00102299 9.05061 0.000818394 10.3083 0.000818394 11.9953C0.000818394 17.0025 0.00635159 18.4666 0.0303531 18.7509C0.113415 19.7516 0.270305 20.3812 0.602552 21.0699C1.23751 22.3882 2.4502 23.3778 3.87886 23.7471C4.37354 23.8744 4.9199 23.9446 5.6213 23.9778C5.91848 23.9908 8.94744 24 11.9783 24C15.0091 24 18.0399 23.9963 18.3297 23.9815C19.1418 23.9433 19.6134 23.88 20.1349 23.7452C21.5728 23.3741 22.7633 22.3992 23.4112 21.0625C23.737 20.3905 23.9022 19.7369 23.9769 18.7884C23.9932 18.5816 24 15.2847 24 11.9922C24 8.69907 23.9926 5.40821 23.9764 5.20142C23.9007 4.23765 23.7355 3.5896 23.3992 2.90461C23.1232 2.34388 22.8168 1.92514 22.372 1.49699C21.5781 0.738523 20.6072 0.276943 19.4503 0.110039C18.8897 0.0289815 18.778 0.00497991 15.9096 0H12.0039Z" fill="url(#paint0_radial_40_226)"/>
<path d="M12.0039 0C6.99403 0 5.52882 0.00517032 5.24402 0.0287999C4.21591 0.114284 3.57616 0.276208 2.87917 0.623305C2.34205 0.890106 1.91843 1.19936 1.50035 1.63287C0.73896 2.42346 0.277507 3.3961 0.110458 4.55226C0.0292467 5.11354 0.00561688 5.228 0.000818394 8.09496C-0.00102299 9.05061 0.000818394 10.3083 0.000818394 11.9953C0.000818394 17.0025 0.00635159 18.4666 0.0303531 18.7509C0.113415 19.7516 0.270305 20.3812 0.602552 21.0699C1.23751 22.3882 2.4502 23.3778 3.87886 23.7471C4.37354 23.8744 4.9199 23.9446 5.6213 23.9778C5.91848 23.9908 8.94744 24 11.9783 24C15.0091 24 18.0399 23.9963 18.3297 23.9815C19.1418 23.9433 19.6134 23.88 20.1349 23.7452C21.5728 23.3741 22.7633 22.3992 23.4112 21.0625C23.737 20.3905 23.9022 19.7369 23.9769 18.7884C23.9932 18.5816 24 15.2847 24 11.9922C24 8.69907 23.9926 5.40821 23.9764 5.20142C23.9007 4.23765 23.7355 3.5896 23.3992 2.90461C23.1232 2.34388 22.8168 1.92514 22.372 1.49699C21.5781 0.738523 20.6072 0.276943 19.4503 0.110039C18.8897 0.0289815 18.778 0.00497991 15.9096 0H12.0039Z" fill="url(#paint1_radial_40_226)"/>
<path d="M12.0039 0C6.99403 0 5.52882 0.00517032 5.24402 0.0287999C4.21591 0.114284 3.57616 0.276208 2.87917 0.623305C2.34205 0.890106 1.91843 1.19936 1.50035 1.63287C0.73896 2.42346 0.277507 3.3961 0.110458 4.55226C0.0292467 5.11354 0.00561688 5.228 0.000818394 8.09496C-0.00102299 9.05061 0.000818394 10.3083 0.000818394 11.9953C0.000818394 17.0025 0.00635159 18.4666 0.0303531 18.7509C0.113415 19.7516 0.270305 20.3812 0.602552 21.0699C1.23751 22.3882 2.4502 23.3778 3.87886 23.7471C4.37354 23.8744 4.9199 23.9446 5.6213 23.9778C5.91848 23.9908 8.94744 24 11.9783 24C15.0091 24 18.0399 23.9963 18.3297 23.9815C19.1418 23.9433 19.6134 23.88 20.1349 23.7452C21.5728 23.3741 22.7633 22.3992 23.4112 21.0625C23.737 20.3905 23.9022 19.7369 23.9769 18.7884C23.9932 18.5816 24 15.2847 24 11.9922C24 8.69907 23.9926 5.40821 23.9764 5.20142C23.9007 4.23765 23.7355 3.5896 23.3992 2.90461C23.1232 2.34388 22.8168 1.92514 22.372 1.49699C21.5781 0.738523 20.6072 0.276943 19.4503 0.110039C18.8897 0.0289815 18.778 0.00497991 15.9096 0H12.0039Z" fill="url(#paint2_radial_40_226)"/>
<path d="M12.0039 0C6.99403 0 5.52882 0.00517032 5.24402 0.0287999C4.21591 0.114284 3.57616 0.276208 2.87917 0.623305C2.34205 0.890106 1.91843 1.19936 1.50035 1.63287C0.73896 2.42346 0.277507 3.3961 0.110458 4.55226C0.0292467 5.11354 0.00561688 5.228 0.000818394 8.09496C-0.00102299 9.05061 0.000818394 10.3083 0.000818394 11.9953C0.000818394 17.0025 0.00635159 18.4666 0.0303531 18.7509C0.113415 19.7516 0.270305 20.3812 0.602552 21.0699C1.23751 22.3882 2.4502 23.3778 3.87886 23.7471C4.37354 23.8744 4.9199 23.9446 5.6213 23.9778C5.91848 23.9908 8.94744 24 11.9783 24C15.0091 24 18.0399 23.9963 18.3297 23.9815C19.1418 23.9433 19.6134 23.88 20.1349 23.7452C21.5728 23.3741 22.7633 22.3992 23.4112 21.0625C23.737 20.3905 23.9022 19.7369 23.9769 18.7884C23.9932 18.5816 24 15.2847 24 11.9922C24 8.69907 23.9926 5.40821 23.9764 5.20142C23.9007 4.23765 23.7355 3.5896 23.3992 2.90461C23.1232 2.34388 22.8168 1.92514 22.372 1.49699C21.5781 0.738523 20.6072 0.276943 19.4503 0.110039C18.8897 0.0289815 18.778 0.00497991 15.9096 0H12.0039Z" fill="url(#paint3_radial_40_226)"/>
<path d="M12.0049 3.08167C9.58143 3.08167 9.2773 3.09225 8.32546 3.13554C7.3755 3.179 6.72707 3.32929 6.15968 3.5498C5.57279 3.77755 5.07493 4.0822 4.57895 4.578C4.08259 5.07364 3.7777 5.57111 3.54904 6.15739C3.32781 6.72453 3.17723 7.37267 3.13448 8.32156C3.09191 9.27268 3.08075 9.57678 3.08075 11.9984C3.08075 14.4201 3.09153 14.723 3.13466 15.6742C3.17835 16.6234 3.32875 17.2714 3.54922 17.8383C3.77733 18.4248 4.08221 18.9223 4.57839 19.4179C5.0742 19.9139 5.57204 20.2193 6.15857 20.447C6.72631 20.6675 7.37494 20.8178 8.32472 20.8613C9.27655 20.9046 9.5805 20.9152 12.0038 20.9152C14.4274 20.9152 14.7306 20.9046 15.6824 20.8613C16.6324 20.8178 17.2816 20.6675 17.8493 20.447C18.436 20.2193 18.9331 19.9139 19.4289 19.4179C19.9253 18.9223 20.2302 18.4248 20.4588 17.8385C20.6782 17.2714 20.8288 16.6232 20.8734 15.6744C20.9162 14.7232 20.9273 14.4201 20.9273 11.9984C20.9273 9.57677 20.9162 9.27287 20.8734 8.32174C20.8288 7.37248 20.6782 6.72453 20.4588 6.15758C20.2302 5.57111 19.9253 5.07363 19.4289 4.578C18.9326 4.08201 18.4362 3.77736 17.8488 3.54979C17.2799 3.32929 16.6311 3.179 15.6811 3.13554C14.7293 3.09225 14.4263 3.08167 12.0021 3.08167H12.0049ZM11.2044 4.68854C11.442 4.68817 11.7071 4.68854 12.0049 4.68854C14.3874 4.68854 14.6698 4.69709 15.6107 4.73981C16.4807 4.77957 16.9529 4.92483 17.2674 5.04688C17.6839 5.20849 17.9807 5.40169 18.2929 5.71378C18.6052 6.02587 18.7985 6.32309 18.9606 6.7392C19.0828 7.05314 19.2283 7.52499 19.2679 8.39438C19.3107 9.33435 19.32 9.61672 19.32 11.9964C19.32 14.376 19.3107 14.6584 19.2679 15.5984C19.2282 16.4678 19.0828 16.9396 18.9606 17.2535C18.7989 17.6697 18.6052 17.966 18.2929 18.2779C17.9806 18.5899 17.684 18.7831 17.2674 18.9448C16.9533 19.0674 16.4807 19.2123 15.6107 19.252C14.67 19.2947 14.3874 19.304 12.0049 19.304C9.62214 19.304 9.33976 19.2947 8.39908 19.252C7.52906 19.2119 7.05686 19.0666 6.74212 18.9446C6.3257 18.783 6.02825 18.5898 5.71594 18.2777C5.40362 17.9656 5.21028 17.6691 5.04817 17.2528C4.92603 16.9389 4.78047 16.467 4.74087 15.5976C4.69811 14.6577 4.68956 14.3753 4.68956 11.9941C4.68956 9.61301 4.69811 9.33212 4.74087 8.39215C4.78066 7.52276 4.92603 7.05092 5.04817 6.73661C5.2099 6.32049 5.40362 6.02327 5.71594 5.71118C6.02825 5.39909 6.3257 5.2059 6.74212 5.04391C7.05667 4.9213 7.52906 4.77641 8.39908 4.73646C9.22226 4.69931 9.54128 4.68817 11.2044 4.6863L11.2044 4.68854ZM16.7681 6.16909C16.1769 6.16909 15.6973 6.64781 15.6973 7.23873C15.6973 7.82947 16.1769 8.30874 16.7681 8.30874C17.3593 8.30874 17.8389 7.82947 17.8389 7.23873C17.8389 6.64799 17.3593 6.16873 16.7681 6.16873L16.7681 6.16909ZM12.0049 7.41929C9.47416 7.41929 7.42235 9.46959 7.42235 11.9984C7.42235 14.5272 9.47416 16.5766 12.0049 16.5766C14.5356 16.5766 16.5867 14.5272 16.5867 11.9984C16.5867 9.46959 14.5354 7.41929 12.0047 7.41929H12.0049ZM12.0049 9.02617C13.6475 9.02617 14.9793 10.3568 14.9793 11.9984C14.9793 13.6398 13.6475 14.9707 12.0049 14.9707C10.362 14.9707 9.03041 13.6398 9.03041 11.9984C9.03041 10.3568 10.362 9.02617 12.0049 9.02617Z" fill="white"/>
</g>
<defs>
<radialGradient id="paint0_radial_40_226" cx="0" cy="0" r="1" gradientTransform="matrix(-14.7589 4.16236 -2.99883 -10.6331 23.225 11.2491)" gradientUnits="userSpaceOnUse">
<stop stop-color="#FF005F"/>
<stop offset="1" stop-color="#FC01D8"/>
</radialGradient>
<radialGradient id="paint1_radial_40_226" cx="0" cy="0" r="1" gradientUnits="userSpaceOnUse" gradientTransform="translate(6.37482 25.8485) rotate(-90) scale(19.1572 20.3254)">
<stop stop-color="#FFCC00"/>
<stop offset="0.1242" stop-color="#FFCC00"/>
<stop offset="0.5672" stop-color="#FE4A05"/>
<stop offset="0.6942" stop-color="#FF0F3F"/>
<stop offset="1" stop-color="#FE0657" stop-opacity="0"/>
</radialGradient>
<radialGradient id="paint2_radial_40_226" cx="0" cy="0" r="1" gradientTransform="matrix(3.97636 -6.8514 8.91974 5.1768 12.6065 23.6615)" gradientUnits="userSpaceOnUse">
<stop stop-color="#FFCC00"/>
<stop offset="1" stop-color="#FFCC00" stop-opacity="0"/>
</radialGradient>
<radialGradient id="paint3_radial_40_226" cx="0" cy="0" r="1" gradientTransform="matrix(-14.5969 4.11024 -1.4 -4.97325 3.25629 0.977273)" gradientUnits="userSpaceOnUse">
<stop stop-color="#780CFF"/>
<stop offset="1" stop-color="#820BFF" stop-opacity="0"/>
</radialGradient>
<clipPath id="clip0_40_226">
<rect width="24" height="24" fill="white"/>
</clipPath>
</defs>
</svg>
