<svg width="24" height="24" viewBox="0 0 24 24" fill="none" xmlns="http://www.w3.org/2000/svg">
<g clip-path="url(#clip0_1237_1999)">
<path d="M12.0039 0C6.99403 0 5.52882 0.00517032 5.24402 0.0287999C4.21591 0.114284 3.57616 0.276208 2.87917 0.623305C2.34205 0.890106 1.91843 1.19936 1.50035 1.63287C0.73896 2.42346 0.277507 3.3961 0.110458 4.55226C0.0292467 5.11354 0.00561688 5.228 0.000818394 8.09496C-0.00102299 9.05061 0.000818394 10.3083 0.000818394 11.9953C0.000818394 17.0025 0.00635159 18.4666 0.0303531 18.7509C0.113415 19.7516 0.270305 20.3812 0.602552 21.0699C1.23751 22.3882 2.4502 23.3778 3.87886 23.7471C4.37354 23.8744 4.9199 23.9446 5.6213 23.9778C5.91848 23.9908 8.94744 24 11.9783 24C15.0091 24 18.0399 23.9963 18.3297 23.9815C19.1418 23.9433 19.6134 23.88 20.1349 23.7452C21.5728 23.3741 22.7633 22.3992 23.4112 21.0625C23.737 20.3905 23.9022 19.7369 23.9769 18.7884C23.9932 18.5816 24 15.2847 24 11.9922C24 8.69907 23.9926 5.40821 23.9764 5.20142C23.9007 4.23765 23.7355 3.5896 23.3992 2.90461C23.1232 2.34388 22.8168 1.92514 22.372 1.49699C21.5781 0.738523 20.6072 0.276943 19.4503 0.110039C18.8897 0.0289815 18.778 0.00497991 15.9096 0H12.0039Z" fill="url(#paint0_radial_1237_1999)"/>
<path d="M12.0039 0C6.99403 0 5.52882 0.00517032 5.24402 0.0287999C4.21591 0.114284 3.57616 0.276208 2.87917 0.623305C2.34205 0.890106 1.91843 1.19936 1.50035 1.63287C0.73896 2.42346 0.277507 3.3961 0.110458 4.55226C0.0292467 5.11354 0.00561688 5.228 0.000818394 8.09496C-0.00102299 9.05061 0.000818394 10.3083 0.000818394 11.9953C0.000818394 17.0025 0.00635159 18.4666 0.0303531 18.7509C0.113415 19.7516 0.270305 20.3812 0.602552 21.0699C1.23751 22.3882 2.4502 23.3778 3.87886 23.7471C4.37354 23.8744 4.9199 23.9446 5.6213 23.9778C5.91848 23.9908 8.94744 24 11.9783 24C15.0091 24 18.0399 23.9963 18.3297 23.9815C19.1418 23.9433 19.6134 23.88 20.1349 23.7452C21.5728 23.3741 22.7633 22.3992 23.4112 21.0625C23.737 20.3905 23.9022 19.7369 23.9769 18.7884C23.9932 18.5816 24 15.2847 24 11.9922C24 8.69907 23.9926 5.40821 23.9764 5.20142C23.9007 4.23765 23.7355 3.5896 23.3992 2.90461C23.1232 2.34388 22.8168 1.92514 22.372 1.49699C21.5781 0.738523 20.6072 0.276943 19.4503 0.110039C18.8897 0.0289815 18.778 0.00497991 15.9096 0H12.0039Z" fill="url(#paint1_radial_1237_1999)"/>
<path d="M12.0039 0C6.99403 0 5.52882 0.00517032 5.24402 0.0287999C4.21591 0.114284 3.57616 0.276208 2.87917 0.623305C2.34205 0.890106 1.91843 1.19936 1.50035 1.63287C0.73896 2.42346 0.277507 3.3961 0.110458 4.55226C0.0292467 5.11354 0.00561688 5.228 0.000818394 8.09496C-0.00102299 9.05061 0.000818394 10.3083 0.000818394 11.9953C0.000818394 17.0025 0.00635159 18.4666 0.0303531 18.7509C0.113415 19.7516 0.270305 20.3812 0.602552 21.0699C1.23751 22.3882 2.4502 23.3778 3.87886 23.7471C4.37354 23.8744 4.9199 23.9446 5.6213 23.9778C5.91848 23.9908 8.94744 24 11.9783 24C15.0091 24 18.0399 23.9963 18.3297 23.9815C19.1418 23.9433 19.6134 23.88 20.1349 23.7452C21.5728 23.3741 22.7633 22.3992 23.4112 21.0625C23.737 20.3905 23.9022 19.7369 23.9769 18.7884C23.9932 18.5816 24 15.2847 24 11.9922C24 8.69907 23.9926 5.40821 23.9764 5.20142C23.9007 4.23765 23.7355 3.5896 23.3992 2.90461C23.1232 2.34388 22.8168 1.92514 22.372 1.49699C21.5781 0.738523 20.6072 0.276943 19.4503 0.110039C18.8897 0.0289815 18.778 0.00497991 15.9096 0H12.0039Z" fill="url(#paint2_radial_1237_1999)"/>
<path d="M12.0039 0C6.99403 0 5.52882 0.00517032 5.24402 0.0287999C4.21591 0.114284 3.57616 0.276208 2.87917 0.623305C2.34205 0.890106 1.91843 1.19936 1.50035 1.63287C0.73896 2.42346 0.277507 3.3961 0.110458 4.55226C0.0292467 5.11354 0.00561688 5.228 0.000818394 8.09496C-0.00102299 9.05061 0.000818394 10.3083 0.000818394 11.9953C0.000818394 17.0025 0.00635159 18.4666 0.0303531 18.7509C0.113415 19.7516 0.270305 20.3812 0.602552 21.0699C1.23751 22.3882 2.4502 23.3778 3.87886 23.7471C4.37354 23.8744 4.9199 23.9446 5.6213 23.9778C5.91848 23.9908 8.94744 24 11.9783 24C15.0091 24 18.0399 23.9963 18.3297 23.9815C19.1418 23.9433 19.6134 23.88 20.1349 23.7452C21.5728 23.3741 22.7633 22.3992 23.4112 21.0625C23.737 20.3905 23.9022 19.7369 23.9769 18.7884C23.9932 18.5816 24 15.2847 24 11.9922C24 8.69907 23.9926 5.40821 23.9764 5.20142C23.9007 4.23765 23.7355 3.5896 23.3992 2.90461C23.1232 2.34388 22.8168 1.92514 22.372 1.49699C21.5781 0.738523 20.6072 0.276943 19.4503 0.110039C18.8897 0.0289815 18.778 0.00497991 15.9096 0H12.0039Z" fill="url(#paint3_radial_1237_1999)"/>
<path d="M12.0052 3.08163C9.58174 3.08163 9.2776 3.09222 8.32577 3.13551C7.3758 3.17897 6.72737 3.32926 6.15999 3.54977C5.57309 3.77752 5.07524 4.08217 4.57925 4.57797C4.0829 5.07361 3.77801 5.57108 3.54935 6.15736C3.32812 6.7245 3.17753 7.37264 3.13478 8.32153C3.09221 9.27265 3.08105 9.57675 3.08105 11.9984C3.08105 14.42 3.09184 14.723 3.13496 15.6741C3.17866 16.6234 3.32905 17.2713 3.54953 17.8383C3.77763 18.4248 4.08251 18.9222 4.57869 19.4179C5.0745 19.9139 5.57235 20.2193 6.15887 20.447C6.72662 20.6675 7.37525 20.8178 8.32502 20.8613C9.27686 20.9045 9.5808 20.9151 12.0041 20.9151C14.4277 20.9151 14.7309 20.9046 15.6827 20.8613C16.6327 20.8178 17.2819 20.6675 17.8496 20.447C18.4363 20.2193 18.9334 19.9139 19.4292 19.4179C19.9256 18.9222 20.2305 18.4248 20.4592 17.8385C20.6785 17.2713 20.8291 16.6232 20.8737 15.6743C20.9165 14.7232 20.9276 14.42 20.9276 11.9984C20.9276 9.57674 20.9165 9.27284 20.8737 8.32171C20.8291 7.37245 20.6785 6.7245 20.4592 6.15755C20.2305 5.57108 19.9256 5.0736 19.4292 4.57797C18.9329 4.08198 18.4365 3.77732 17.8491 3.54976C17.2802 3.32926 16.6314 3.17897 15.6814 3.13551C14.7296 3.09222 14.4266 3.08163 12.0024 3.08163H12.0052ZM11.2047 4.68851C11.4423 4.68814 11.7074 4.68851 12.0052 4.68851C14.3877 4.68851 14.6701 4.69706 15.611 4.73978C16.481 4.77954 16.9532 4.9248 17.2677 5.04685C17.6842 5.20846 17.9811 5.40166 18.2932 5.71375C18.6055 6.02584 18.7988 6.32306 18.961 6.73917C19.0831 7.05311 19.2286 7.52496 19.2682 8.39435C19.311 9.33432 19.3203 9.61669 19.3203 11.9963C19.3203 14.376 19.311 14.6584 19.2682 15.5983C19.2285 16.4677 19.0831 16.9396 18.961 17.2535C18.7992 17.6696 18.6055 17.9659 18.2932 18.2778C17.9809 18.5899 17.6843 18.7831 17.2677 18.9447C16.9536 19.0673 16.481 19.2122 15.611 19.252C14.6703 19.2947 14.3877 19.304 12.0052 19.304C9.62245 19.304 9.34006 19.2947 8.39939 19.252C7.52936 19.2119 7.05717 19.0666 6.74243 18.9445C6.326 18.7829 6.02855 18.5897 5.71624 18.2776C5.40392 17.9656 5.21059 17.6691 5.04847 17.2528C4.92633 16.9388 4.78077 16.467 4.74118 15.5976C4.69842 14.6576 4.68986 14.3753 4.68986 11.9941C4.68986 9.61298 4.69842 9.33209 4.74118 8.39212C4.78096 7.52273 4.92633 7.05089 5.04847 6.73658C5.2102 6.32046 5.40392 6.02324 5.71624 5.71115C6.02855 5.39906 6.326 5.20587 6.74243 5.04388C7.05698 4.92127 7.52936 4.77638 8.39939 4.73643C9.22257 4.69928 9.54158 4.68814 11.2047 4.68627L11.2047 4.68851ZM16.7684 6.16906C16.1772 6.16906 15.6976 6.64778 15.6976 7.23869C15.6976 7.82943 16.1772 8.30871 16.7684 8.30871C17.3596 8.30871 17.8392 7.82943 17.8392 7.23869C17.8392 6.64796 17.3596 6.1687 16.7684 6.1687L16.7684 6.16906ZM12.0052 7.41926C9.47447 7.41926 7.42265 9.46956 7.42265 11.9984C7.42265 14.5272 9.47447 16.5766 12.0052 16.5766C14.5359 16.5766 16.587 14.5272 16.587 11.9984C16.587 9.46956 14.5357 7.41926 12.005 7.41926H12.0052ZM12.0052 9.02614C13.6478 9.02614 14.9796 10.3568 14.9796 11.9984C14.9796 13.6398 13.6478 14.9706 12.0052 14.9706C10.3623 14.9706 9.03072 13.6398 9.03072 11.9984C9.03072 10.3568 10.3623 9.02614 12.0052 9.02614Z" fill="white"/>
</g>
<defs>
<radialGradient id="paint0_radial_1237_1999" cx="0" cy="0" r="1" gradientTransform="matrix(-14.7589 4.16236 -2.99883 -10.6331 23.225 11.2491)" gradientUnits="userSpaceOnUse">
<stop stop-color="#FF005F"/>
<stop offset="1" stop-color="#FC01D8"/>
</radialGradient>
<radialGradient id="paint1_radial_1237_1999" cx="0" cy="0" r="1" gradientUnits="userSpaceOnUse" gradientTransform="translate(6.37482 25.8485) rotate(-90) scale(19.1572 20.3254)">
<stop stop-color="#FFCC00"/>
<stop offset="0.1242" stop-color="#FFCC00"/>
<stop offset="0.5672" stop-color="#FE4A05"/>
<stop offset="0.6942" stop-color="#FF0F3F"/>
<stop offset="1" stop-color="#FE0657" stop-opacity="0"/>
</radialGradient>
<radialGradient id="paint2_radial_1237_1999" cx="0" cy="0" r="1" gradientTransform="matrix(3.97636 -6.8514 8.91974 5.1768 12.6065 23.6615)" gradientUnits="userSpaceOnUse">
<stop stop-color="#FFCC00"/>
<stop offset="1" stop-color="#FFCC00" stop-opacity="0"/>
</radialGradient>
<radialGradient id="paint3_radial_1237_1999" cx="0" cy="0" r="1" gradientTransform="matrix(-14.5969 4.11024 -1.4 -4.97325 3.25629 0.977273)" gradientUnits="userSpaceOnUse">
<stop stop-color="#780CFF"/>
<stop offset="1" stop-color="#820BFF" stop-opacity="0"/>
</radialGradient>
<clipPath id="clip0_1237_1999">
<rect width="24" height="24" fill="white"/>
</clipPath>
</defs>
</svg>
