<svg width="74" height="27" viewBox="0 0 74 27" fill="none" xmlns="http://www.w3.org/2000/svg">
<path d="M12.4785 26H5.76367V6.73438H5.62305L-0.00195312 10.1094V4.37891L6.29102 0.546875H12.4785V26ZM17.752 21.1836L27.209 13.2383C27.9473 12.6055 28.5273 12.0605 28.9668 11.6035C29.3887 11.1465 29.7227 10.6719 29.9688 10.1797C30.2148 9.6875 30.3379 9.16016 30.3379 8.5625C30.3379 7.5957 30.0215 6.82227 29.3887 6.24219C28.7559 5.66211 27.9473 5.36328 26.9629 5.36328C25.9609 5.36328 25.1523 5.66211 24.5547 6.25977C23.957 6.85742 23.6582 7.70117 23.6582 8.77344H17.2949C17.2949 7.0332 17.6816 5.52148 18.4902 4.2207C19.2812 2.91992 20.4062 1.93555 21.8652 1.23242C23.3242 0.546875 25.0293 0.195312 26.9629 0.195312C28.9316 0.195312 30.6719 0.529297 32.166 1.16211C33.6602 1.8125 34.8203 2.72656 35.6289 3.9043C36.4375 5.08203 36.8418 6.45312 36.8418 8C36.8418 9.03711 36.6309 10.0215 36.209 10.9707C35.7871 11.9199 35.0664 12.9746 34.0293 14.1348C32.9922 15.2949 31.5332 16.6836 29.6348 18.2656L27.0684 20.4805V20.6211H37.123V26H17.752V21.1836ZM51.5723 11.7266H48.2324V19.8828C48.2324 20.375 48.3555 20.7266 48.6367 20.9023C48.9004 21.0957 49.3223 21.1836 49.9199 21.1836C50.5879 21.1836 51.2207 21.1484 51.8184 21.0781V26.0352C50.834 26.2109 49.7793 26.2812 48.6543 26.2812C46.2988 26.2812 44.5234 25.8242 43.3457 24.8926C42.1504 23.9609 41.5703 22.5195 41.5879 20.5508V11.7266H39.127V6.91016H41.5879V2.33984H48.2324V6.91016H51.5723V11.7266ZM61.4863 26H54.8418V0.546875H61.2402V10.4961H61.4512C61.873 9.30078 62.5762 8.35156 63.5781 7.68359C64.5801 7.01562 65.7754 6.66406 67.1816 6.66406C68.5 6.66406 69.6602 6.98047 70.6797 7.57812C71.6992 8.17578 72.4727 9.01953 73.0352 10.1094C73.5801 11.1992 73.8613 12.4473 73.8613 13.8359V26H67.2168V15.207C67.2168 14.2227 66.9707 13.4668 66.4785 12.9043C65.9863 12.3594 65.2832 12.0781 64.3691 12.0781C63.4902 12.0781 62.8047 12.3594 62.2773 12.9219C61.75 13.4844 61.4863 14.2402 61.4863 15.207V26Z" fill="url(#paint0_linear_156_808)"/>
<defs>
<linearGradient id="paint0_linear_156_808" x1="-3" y1="-8" x2="77" y2="36" gradientUnits="userSpaceOnUse">
<stop stop-color="white"/>
<stop offset="1" stop-color="#8C92AC"/>
</linearGradient>
</defs>
</svg>
