<svg width="28" height="20" viewBox="0 0 28 20" fill="none" xmlns="http://www.w3.org/2000/svg">
  <path d="M27.4 3.125C27.075 1.925 26.125 0.975 24.925 0.65C22.75 0 14 0 14 0C14 0 5.25 0 3.075 0.65C1.875 0.975 0.925 1.925 0.6 3.125C0 5.3 0 10 0 10C0 10 0 14.7 0.6 16.875C0.925 18.075 1.875 19.025 3.075 19.35C5.25 20 14 20 14 20C14 20 22.75 20 24.925 19.35C26.125 19.025 27.075 18.075 27.4 16.875C28 14.7 28 10 28 10C28 10 28 5.3 27.4 3.125Z" fill="#FF0000"/>
  <path d="M11.2 14.285L18.4 10L11.2 5.715V14.285Z" fill="white"/>
</svg>
